<svg width="42" height="42" viewBox="0 0 42 42" fill="none" xmlns="http://www.w3.org/2000/svg">
<path fill-rule="evenodd" clip-rule="evenodd" d="M29.8453 26.8724L41.0536 38.0807C41.4476 38.4749 41.6688 39.0095 41.6686 39.5669C41.6684 40.1242 41.4468 40.6586 41.0526 41.0526C40.6584 41.4465 40.1238 41.6678 39.5664 41.6676C39.0091 41.6674 38.4747 41.4458 38.0807 41.0515L26.8724 29.8432C23.5218 32.4384 19.3084 33.6596 15.0893 33.2585C10.8702 32.8574 6.96245 30.8641 4.16089 27.6841C1.35933 24.504 -0.125552 20.3762 0.00832568 16.1402C0.142204 11.9042 1.88478 7.87834 4.88156 4.88156C7.87834 1.88478 11.9042 0.142204 16.1402 0.00832568C20.3762 -0.125552 24.504 1.35933 27.6841 4.16089C30.8641 6.96245 32.8574 10.8703 33.2585 15.0893C33.6596 19.3084 32.4384 23.5218 29.8432 26.8724H29.8453ZM16.6682 29.1661C19.9834 29.1661 23.1628 27.8492 25.507 25.505C27.8513 23.1608 29.1682 19.9813 29.1682 16.6661C29.1682 13.3509 27.8513 10.1715 25.507 7.8273C23.1628 5.48309 19.9834 4.16613 16.6682 4.16613C13.353 4.16613 10.1736 5.48309 7.82938 7.8273C5.48518 10.1715 4.16822 13.3509 4.16822 16.6661C4.16822 19.9813 5.48518 23.1608 7.82938 25.505C10.1736 27.8492 13.353 29.1661 16.6682 29.1661V29.1661Z" fill="#202020"/>
</svg>
